<?xml version="1.0" encoding="utf-8"?>
<!-- Generator: Adobe Illustrator 16.0.0, SVG Export Plug-In . SVG Version: 6.00 Build 0)  -->
<!DOCTYPE svg PUBLIC "-//W3C//DTD SVG 1.1//EN" "http://www.w3.org/Graphics/SVG/1.1/DTD/svg11.dtd">
<svg version="1.1" id="Layer_1" xmlns="http://www.w3.org/2000/svg" xmlns:xlink="http://www.w3.org/1999/xlink" x="0px" y="0px"
	 width="160px" height="160px" viewBox="0 0 160 160" enable-background="new 0 0 160 160" xml:space="preserve">
<polygon points="150.142,83.234 152.796,73.331 81.978,73.331 92.809,32.905 92.884,32.625 78.349,32.625 67.441,73.331 
	37.035,73.331 47.867,32.905 47.941,32.625 33.407,32.625 22.499,73.331 12.512,73.331 9.858,83.234 19.846,83.234 8.183,126.761 
	8.106,127.042 22.643,127.042 34.38,83.234 64.788,83.234 53.125,126.761 53.05,127.042 67.584,127.042 79.324,83.234 
	107.78,83.234 96.042,127.042 110.577,127.042 122.315,83.234 "/>
<polygon fill="none" stroke="#000000" points="151.17,84.574 154.541,71.991 83.724,71.991 94.631,31.284 77.321,31.284 
	66.414,71.991 38.781,71.991 49.689,31.284 32.378,31.284 21.471,71.991 11.483,71.991 8.112,84.574 18.099,84.574 6.361,128.382 
	23.67,128.382 35.409,84.574 63.042,84.574 51.303,128.382 68.613,128.382 80.351,84.574 106.034,84.574 94.296,128.382 
	111.605,128.382 123.344,84.574 "/>
</svg>
