<svg id="Layer_1" data-name="Layer 1" xmlns="http://www.w3.org/2000/svg" viewBox="0 0 612 182.44"><defs><style>.cls-1{fill:#1d1d1b;}.cls-2{fill:none;stroke:#1d1d1b;}</style></defs><path class="cls-1" d="M292.32,314.9,287.21,334q-2.59,9.7-4.16,12.19a12.59,12.59,0,0,1-4.44,4.17,11.55,11.55,0,0,1-5.94,1.68,5.94,5.94,0,0,1-4.09-1.25,4.56,4.56,0,0,1-1.49-3.4q-.09-2.16,2.47-11.69l5.56-20.77h-12l-7.66,28.6q-1.71,6.39-1.07,10a8.17,8.17,0,0,0,3.73,5.61,13.71,13.71,0,0,0,7.64,2,21.7,21.7,0,0,0,9.05-2.08,25.61,25.61,0,0,0,8-5.7l-1.81,6.76h11.11l12.11-45.2Z" transform="translate(-91.94 -182.53)"/><path class="cls-1" d="M335.56,331.24q-9-2.17-10.28-3.36a2.06,2.06,0,0,1-.61-2.17,4.05,4.05,0,0,1,2-2.43c1.59-.88,4-1.32,7.12-1.32q3.74,0,5.39,1.41a5,5,0,0,1,1.66,4l11.84-2.08q-.12-5.93-3.82-8.94t-13-3q-9.75,0-15.46,4a17.44,17.44,0,0,0-7.29,9.87q-1.74,6.51,2.64,10.17,3.16,2.64,16.78,5.83c1.95.49,3.14,1,3.58,1.58a2.63,2.63,0,0,1,.25,2.25,5.32,5.32,0,0,1-2.43,3.2,14.28,14.28,0,0,1-7.44,1.7q-4.21,0-6.07-1.81a6.6,6.6,0,0,1-1.69-5.3l-12.49,1.83a12.54,12.54,0,0,0,4.32,10.18q4.38,3.74,13.62,3.74,10.17,0,16.56-4.47t8.06-10.68q1.53-5.7-1.37-8.9T335.56,331.24Z" transform="translate(-91.94 -182.53)"/><path class="cls-1" d="M381.65,323.92h8.17l2.56-9.53h-8.17l4.27-16-13.87,7-2.41,9h-5.49l-2.55,9.53h5.49l-5.28,19.71a61.52,61.52,0,0,0-1.88,8.43,9.36,9.36,0,0,0,.43,4.66,5.83,5.83,0,0,0,3.06,2.81,13,13,0,0,0,5.54,1.08,27.47,27.47,0,0,0,9.93-1.78l1.47-9.28a18.54,18.54,0,0,1-5.12,1.14,2.71,2.71,0,0,1-1.87-.59,1.91,1.91,0,0,1-.65-1.51,46.72,46.72,0,0,1,1.49-6.45Z" transform="translate(-91.94 -182.53)"/><polygon class="cls-1" points="317.16 115.1 300.44 177.51 312.4 177.51 329.12 115.1 317.16 115.1"/><path class="cls-1" d="M461.08,341.46q3.94-13.75-.1-20.41t-14.14-6.66a25.21,25.21,0,0,0-16.56,6.36q-7.57,6.36-10.59,17.6-2.52,9.4.29,15.58,3.6,7.71,15.39,7.71a26,26,0,0,0,13.33-3.43,28.66,28.66,0,0,0,9.93-10l-11.38-2a13.81,13.81,0,0,1-4.22,4.94,9.14,9.14,0,0,1-5.13,1.53,6.84,6.84,0,0,1-6.11-3c-1.31-2-1.54-4.73-.67-8.28Zm-23.2-15.07a10.87,10.87,0,0,1,7.23-2.85,6.19,6.19,0,0,1,5.49,2.7c1.22,1.8,1.41,4.44.57,7.9H433.29A14.78,14.78,0,0,1,437.88,326.39Z" transform="translate(-91.94 -182.53)"/><polygon class="cls-1" points="171.84 72.06 190.25 3.33 155.09 3.33 136.72 71.89 67.81 71.89 86.18 3.33 51.01 3.33 4.35 177.51 39.51 177.51 59.91 101.35 128.82 101.35 108.42 177.51 143.59 177.51 164.34 100.06 429.97 101.16 409.47 176.21 442.89 176.21 463.39 101.16 512.39 101.16 519.89 73.16 171.84 72.06"/><path class="cls-1" d="M594.32,341.42q3.9-13.59-.1-20.19t-14-6.59a24.93,24.93,0,0,0-16.38,6.3q-7.5,6.3-10.47,17.41-2.5,9.3.29,15.41,3.55,7.62,15.22,7.62A25.69,25.69,0,0,0,582.07,358a28.48,28.48,0,0,0,9.83-9.87l-11.26-2a13.58,13.58,0,0,1-4.18,4.88,9,9,0,0,1-5.08,1.52,6.74,6.74,0,0,1-6-2.93c-1.3-1.95-1.53-4.68-.67-8.19Zm-23-14.9a10.75,10.75,0,0,1,7.15-2.82,6.11,6.11,0,0,1,5.43,2.67c1.21,1.78,1.4,4.39.57,7.81H566.83A14.61,14.61,0,0,1,571.37,326.52Z" transform="translate(-91.94 -182.53)"/><path class="cls-1" d="M645.08,341.42q3.88-13.59-.11-20.19t-14-6.59a24.93,24.93,0,0,0-16.38,6.3q-7.5,6.3-10.48,17.41-2.49,9.3.29,15.41,3.57,7.62,15.23,7.62A25.69,25.69,0,0,0,632.83,358a28.45,28.45,0,0,0,9.82-9.87l-11.26-2a13.56,13.56,0,0,1-4.17,4.88,9,9,0,0,1-5.08,1.52,6.76,6.76,0,0,1-6-2.93q-2-2.92-.66-8.19Zm-23-14.9a10.73,10.73,0,0,1,7.15-2.82,6.13,6.13,0,0,1,5.43,2.67c1.21,1.78,1.39,4.39.56,7.81H617.59A14.55,14.55,0,0,1,622.13,326.52Z" transform="translate(-91.94 -182.53)"/><path class="cls-1" d="M683.6,331.3q-8.88-2.15-10.16-3.32a2,2,0,0,1-.6-2.15,4,4,0,0,1,2-2.4c1.58-.87,3.92-1.3,7-1.3q3.71,0,5.33,1.38a5,5,0,0,1,1.65,4l11.71-2.06q-.12-5.85-3.78-8.84t-12.84-3q-9.65,0-15.29,4a17.29,17.29,0,0,0-7.21,9.76q-1.73,6.45,2.61,10.07,3.13,2.61,16.6,5.77c1.92.48,3.1,1,3.54,1.56a2.65,2.65,0,0,1,.25,2.23,5.34,5.34,0,0,1-2.41,3.16,14.07,14.07,0,0,1-7.36,1.68c-2.77,0-4.78-.6-6-1.79a6.54,6.54,0,0,1-1.67-5.24l-12.36,1.81a12.35,12.35,0,0,0,4.28,10.06q4.32,3.71,13.46,3.71,10.07,0,16.39-4.42t8-10.57q1.51-5.64-1.35-8.8T683.6,331.3Z" transform="translate(-91.94 -182.53)"/><path class="cls-2" d="M265.8,364a16.6,16.6,0,0,1-9.18-2.46,10.93,10.93,0,0,1-5-7.49c-.51-2.86-.14-6.53,1.12-11.24L261,312.06h17.83l-6.53,24.34c-2.26,8.46-2.39,10.44-2.37,10.85a1.82,1.82,0,0,0,.54,1.4,3.55,3.55,0,0,0,2.21.53,8.69,8.69,0,0,0,4.5-1.29,9.82,9.82,0,0,0,3.48-3.23c.5-.8,1.66-3.34,3.82-11.43l5.68-21.17H308l-13.64,50.88h-17l.61-2.3c-.63.35-1.29.68-2,1A24.67,24.67,0,0,1,265.8,364Z" transform="translate(-91.94 -182.53)"/><path class="cls-2" d="M265.8,364a16.6,16.6,0,0,1-9.18-2.46,10.93,10.93,0,0,1-5-7.49c-.51-2.86-.14-6.53,1.12-11.24L261,312.06h17.83l-6.53,24.34c-2.26,8.46-2.39,10.44-2.37,10.85a1.82,1.82,0,0,0,.54,1.4,3.55,3.55,0,0,0,2.21.53,8.69,8.69,0,0,0,4.5-1.29,9.82,9.82,0,0,0,3.48-3.23c.5-.8,1.66-3.34,3.82-11.43l5.68-21.17H308l-13.64,50.88h-17l.61-2.3c-.63.35-1.29.68-2,1A24.67,24.67,0,0,1,265.8,364Z" transform="translate(-91.94 -182.53)"/><path class="cls-2" d="M265.8,364a16.6,16.6,0,0,1-9.18-2.46,10.93,10.93,0,0,1-5-7.49c-.51-2.86-.14-6.53,1.12-11.24L261,312.06h17.83l-6.53,24.34c-2.26,8.46-2.39,10.44-2.37,10.85a1.82,1.82,0,0,0,.54,1.4,3.55,3.55,0,0,0,2.21.53,8.69,8.69,0,0,0,4.5-1.29,9.82,9.82,0,0,0,3.48-3.23c.5-.8,1.66-3.34,3.82-11.43l5.68-21.17H308l-13.64,50.88h-17l.61-2.3c-.63.35-1.29.68-2,1A24.67,24.67,0,0,1,265.8,364Z" transform="translate(-91.94 -182.53)"/><path class="cls-2" d="M324.22,363.45c-6.93,0-12-1.45-15.46-4.43a15.29,15.29,0,0,1-5.32-12.35l0-2.43,15-2.2a16.13,16.13,0,0,1-4.47-2.45c-2.63-2.2-5.39-6.26-3.56-13.09a20.39,20.39,0,0,1,8.4-11.46c4.28-3,10-4.51,17.09-4.51s11.75,1.2,14.77,3.66,4.77,6.28,4.86,11.08l.05,2.43-13.78,2.42c3.57,1.28,6.12,2.77,7.75,4.5,2.63,2.92,3.3,6.8,2,11.57s-4.36,8.92-9.17,12.28S331.56,363.45,324.22,363.45ZM321.6,345c-.1,2.21.61,2.9.84,3.13.66.65,2.12,1,4.09,1a11.64,11.64,0,0,0,6-1.28,2.55,2.55,0,0,0,1.11-1.33,14.6,14.6,0,0,0-1.72-.53c-4.39-1-7.69-1.95-10.2-2.77Zm6.1-19a60.54,60.54,0,0,0,8.52,2.48c.63.15,1.23.3,1.82.46v-1.52c0-1.34-.49-1.75-.67-1.91s-1.05-.72-3.55-.72c-3.31,0-5,.52-5.76,1A2.29,2.29,0,0,0,327.7,326Z" transform="translate(-91.94 -182.53)"/><path class="cls-2" d="M324.22,363.45c-6.93,0-12-1.45-15.46-4.43a15.29,15.29,0,0,1-5.32-12.35l0-2.43,15-2.2a16.13,16.13,0,0,1-4.47-2.45c-2.63-2.2-5.39-6.26-3.56-13.09a20.39,20.39,0,0,1,8.4-11.46c4.28-3,10-4.51,17.09-4.51s11.75,1.2,14.77,3.66,4.77,6.28,4.86,11.08l.05,2.43-13.78,2.42c3.57,1.28,6.12,2.77,7.75,4.5,2.63,2.92,3.3,6.8,2,11.57s-4.36,8.92-9.17,12.28S331.56,363.45,324.22,363.45ZM321.6,345c-.1,2.21.61,2.9.84,3.13.66.65,2.12,1,4.09,1a11.64,11.64,0,0,0,6-1.28,2.55,2.55,0,0,0,1.11-1.33,14.6,14.6,0,0,0-1.72-.53c-4.39-1-7.69-1.95-10.2-2.77Zm6.1-19a60.54,60.54,0,0,0,8.52,2.48c.63.15,1.23.3,1.82.46v-1.52c0-1.34-.49-1.75-.67-1.91s-1.05-.72-3.55-.72c-3.31,0-5,.52-5.76,1A2.29,2.29,0,0,0,327.7,326Z" transform="translate(-91.94 -182.53)"/><path class="cls-2" d="M324.22,363.45c-6.93,0-12-1.45-15.46-4.43a15.29,15.29,0,0,1-5.32-12.35l0-2.43,15-2.2a16.13,16.13,0,0,1-4.47-2.45c-2.63-2.2-5.39-6.26-3.56-13.09a20.39,20.39,0,0,1,8.4-11.46c4.28-3,10-4.51,17.09-4.51s11.75,1.2,14.77,3.66,4.77,6.28,4.86,11.08l.05,2.43-13.78,2.42c3.57,1.28,6.12,2.77,7.75,4.5,2.63,2.92,3.3,6.8,2,11.57s-4.36,8.92-9.17,12.28S331.56,363.45,324.22,363.45ZM321.6,345c-.1,2.21.61,2.9.84,3.13.66.65,2.12,1,4.09,1a11.64,11.64,0,0,0,6-1.28,2.55,2.55,0,0,0,1.11-1.33,14.6,14.6,0,0,0-1.72-.53c-4.39-1-7.69-1.95-10.2-2.77Zm6.1-19a60.54,60.54,0,0,0,8.52,2.48c.63.15,1.23.3,1.82.46v-1.52c0-1.34-.49-1.75-.67-1.91s-1.05-.72-3.55-.72c-3.31,0-5,.52-5.76,1A2.29,2.29,0,0,0,327.7,326Z" transform="translate(-91.94 -182.53)"/><path class="cls-2" d="M371.52,363.45a15.76,15.76,0,0,1-6.75-1.36,8.54,8.54,0,0,1-4.44-4.24,11.93,11.93,0,0,1-.66-6.09,56.65,56.65,0,0,1,2-8.86L366,326.76h-5.49l4.08-15.21H370l2.17-8.11,20.66-10.39-5,18.5h8.17L392,326.76h-8.17l-4.32,16.11c-.72,2.7-1.07,4.16-1.24,5a21.53,21.53,0,0,0,3.75-1l4.42-1.47L384,360.89l-1.52.58A30.44,30.44,0,0,1,371.52,363.45Z" transform="translate(-91.94 -182.53)"/><path class="cls-2" d="M371.52,363.45a15.76,15.76,0,0,1-6.75-1.36,8.54,8.54,0,0,1-4.44-4.24,11.93,11.93,0,0,1-.66-6.09,56.65,56.65,0,0,1,2-8.86L366,326.76h-5.49l4.08-15.21H370l2.17-8.11,20.66-10.39-5,18.5h8.17L392,326.76h-8.17l-4.32,16.11c-.72,2.7-1.07,4.16-1.24,5a21.53,21.53,0,0,0,3.75-1l4.42-1.47L384,360.89l-1.52.58A30.44,30.44,0,0,1,371.52,363.45Z" transform="translate(-91.94 -182.53)"/><path class="cls-2" d="M371.52,363.45a15.76,15.76,0,0,1-6.75-1.36,8.54,8.54,0,0,1-4.44-4.24,11.93,11.93,0,0,1-.66-6.09,56.65,56.65,0,0,1,2-8.86L366,326.76h-5.49l4.08-15.21H370l2.17-8.11,20.66-10.39-5,18.5h8.17L392,326.76h-8.17l-4.32,16.11c-.72,2.7-1.07,4.16-1.24,5a21.53,21.53,0,0,0,3.75-1l4.42-1.47L384,360.89l-1.52.58A30.44,30.44,0,0,1,371.52,363.45Z" transform="translate(-91.94 -182.53)"/><polygon class="cls-2" points="296.74 180.34 314.98 112.27 332.81 112.27 314.57 180.34 296.74 180.34"/><polygon class="cls-2" points="296.74 180.34 314.98 112.27 332.81 112.27 314.57 180.34 296.74 180.34"/><polygon class="cls-2" points="296.74 180.34 314.98 112.27 332.81 112.27 314.57 180.34 296.74 180.34"/><path class="cls-2" d="M435.37,364.47c-9,0-15.06-3.14-17.95-9.34-2.16-4.73-2.32-10.61-.47-17.51,2.15-8,6-14.43,11.51-19a28.1,28.1,0,0,1,18.38-7c7.75,0,13.32,2.7,16.56,8s3.29,12.6.41,22.66l-.59,2.05h-10.6l10.62,1.87-2.2,3.56a31.66,31.66,0,0,1-10.92,10.94A28.84,28.84,0,0,1,435.37,364.47Zm-1.88-20.18a5.87,5.87,0,0,0,.66,3.88c.53.79,1.43,1.69,3.75,1.69a6.36,6.36,0,0,0,3.57-1.06,11,11,0,0,0,3.3-3.95l.31-.56Zm15.31-13a5.31,5.31,0,0,0-.55-3.47,3.33,3.33,0,0,0-3.14-1.45,8,8,0,0,0-5.38,2.16,10.74,10.74,0,0,0-2.29,2.76Z" transform="translate(-91.94 -182.53)"/><path class="cls-2" d="M435.37,364.47c-9,0-15.06-3.14-17.95-9.34-2.16-4.73-2.32-10.61-.47-17.51,2.15-8,6-14.43,11.51-19a28.1,28.1,0,0,1,18.38-7c7.75,0,13.32,2.7,16.56,8s3.29,12.6.41,22.66l-.59,2.05h-10.6l10.62,1.87-2.2,3.56a31.66,31.66,0,0,1-10.92,10.94A28.84,28.84,0,0,1,435.37,364.47Zm-1.88-20.18a5.87,5.87,0,0,0,.66,3.88c.53.79,1.43,1.69,3.75,1.69a6.36,6.36,0,0,0,3.57-1.06,11,11,0,0,0,3.3-3.95l.31-.56Zm15.31-13a5.31,5.31,0,0,0-.55-3.47,3.33,3.33,0,0,0-3.14-1.45,8,8,0,0,0-5.38,2.16,10.74,10.74,0,0,0-2.29,2.76Z" transform="translate(-91.94 -182.53)"/><path class="cls-2" d="M435.37,364.47c-9,0-15.06-3.14-17.95-9.34-2.16-4.73-2.32-10.61-.47-17.51,2.15-8,6-14.43,11.51-19a28.1,28.1,0,0,1,18.38-7c7.75,0,13.32,2.7,16.56,8s3.29,12.6.41,22.66l-.59,2.05h-10.6l10.62,1.87-2.2,3.56a31.66,31.66,0,0,1-10.92,10.94A28.84,28.84,0,0,1,435.37,364.47Zm-1.88-20.18a5.87,5.87,0,0,0,.66,3.88c.53.79,1.43,1.69,3.75,1.69a6.36,6.36,0,0,0,3.57-1.06,11,11,0,0,0,3.3-3.95l.31-.56Zm15.31-13a5.31,5.31,0,0,0-.55-3.47,3.33,3.33,0,0,0-3.14-1.45,8,8,0,0,0-5.38,2.16,10.74,10.74,0,0,0-2.29,2.76Z" transform="translate(-91.94 -182.53)"/><polygon class="cls-2" points="104.73 180.34 125.13 104.19 62.09 104.19 41.69 180.34 0.65 180.34 48.84 0.5 89.87 0.5 71.5 69.05 134.54 69.05 152.91 0.5 193.95 0.5 175.53 69.24 523.58 70.34 514.56 104 465.55 104 445.05 179.04 405.76 179.04 426.26 103.98 166.51 102.91 145.76 180.34 104.73 180.34"/><polygon class="cls-2" points="104.73 180.34 125.13 104.19 62.09 104.19 41.69 180.34 0.65 180.34 48.84 0.5 89.87 0.5 71.5 69.05 134.54 69.05 152.91 0.5 193.95 0.5 175.53 69.24 523.58 70.34 514.56 104 465.55 104 445.05 179.04 405.76 179.04 426.26 103.98 166.51 102.91 145.76 180.34 104.73 180.34"/><polygon class="cls-2" points="104.73 180.34 125.13 104.19 62.09 104.19 41.69 180.34 0.65 180.34 48.84 0.5 89.87 0.5 71.5 69.05 134.54 69.05 152.91 0.5 193.95 0.5 175.53 69.24 523.58 70.34 514.56 104 465.55 104 445.05 179.04 405.76 179.04 426.26 103.98 166.51 102.91 145.76 180.34 104.73 180.34"/><path class="cls-2" d="M568.89,364.21c-8.94,0-14.92-3.11-17.79-9.25-2.14-4.69-2.29-10.51-.46-17.34,2.13-7.95,6-14.29,11.39-18.85a27.81,27.81,0,0,1,18.2-7c7.68,0,13.2,2.67,16.41,7.95s3.26,12.49.41,22.44l-.59,2.06H586.31l10.2,1.79-2.2,3.56a31.46,31.46,0,0,1-10.81,10.83A28.67,28.67,0,0,1,568.89,364.21Zm-1.84-19.95a5.71,5.71,0,0,0,.66,3.78c.51.77,1.4,1.66,3.67,1.66a6.24,6.24,0,0,0,3.52-1,11,11,0,0,0,3.26-3.9l.28-.5Zm15.09-12.91a5.14,5.14,0,0,0-.54-3.39,3.25,3.25,0,0,0-3.08-1.43,8,8,0,0,0-5.31,2.14,10.35,10.35,0,0,0-2.22,2.68Z" transform="translate(-91.94 -182.53)"/><path class="cls-2" d="M568.89,364.21c-8.94,0-14.92-3.11-17.79-9.25-2.14-4.69-2.29-10.51-.46-17.34,2.13-7.95,6-14.29,11.39-18.85a27.81,27.81,0,0,1,18.2-7c7.68,0,13.2,2.67,16.41,7.95s3.26,12.49.41,22.44l-.59,2.06H586.31l10.2,1.79-2.2,3.56a31.46,31.46,0,0,1-10.81,10.83A28.67,28.67,0,0,1,568.89,364.21Zm-1.84-19.95a5.71,5.71,0,0,0,.66,3.78c.51.77,1.4,1.66,3.67,1.66a6.24,6.24,0,0,0,3.52-1,11,11,0,0,0,3.26-3.9l.28-.5Zm15.09-12.91a5.14,5.14,0,0,0-.54-3.39,3.25,3.25,0,0,0-3.08-1.43,8,8,0,0,0-5.31,2.14,10.35,10.35,0,0,0-2.22,2.68Z" transform="translate(-91.94 -182.53)"/><path class="cls-2" d="M568.89,364.21c-8.94,0-14.92-3.11-17.79-9.25-2.14-4.69-2.29-10.51-.46-17.34,2.13-7.95,6-14.29,11.39-18.85a27.81,27.81,0,0,1,18.2-7c7.68,0,13.2,2.67,16.41,7.95s3.26,12.49.41,22.44l-.59,2.06H586.31l10.2,1.79-2.2,3.56a31.46,31.46,0,0,1-10.81,10.83A28.67,28.67,0,0,1,568.89,364.21Zm-1.84-19.95a5.71,5.71,0,0,0,.66,3.78c.51.77,1.4,1.66,3.67,1.66a6.24,6.24,0,0,0,3.52-1,11,11,0,0,0,3.26-3.9l.28-.5Zm15.09-12.91a5.14,5.14,0,0,0-.54-3.39,3.25,3.25,0,0,0-3.08-1.43,8,8,0,0,0-5.31,2.14,10.35,10.35,0,0,0-2.22,2.68Z" transform="translate(-91.94 -182.53)"/><path class="cls-2" d="M619.65,364.21c-8.94,0-14.93-3.11-17.79-9.25-2.14-4.69-2.29-10.51-.47-17.34,2.13-7.95,6-14.29,11.39-18.85a27.83,27.83,0,0,1,18.21-7c7.68,0,13.2,2.67,16.41,7.95s3.25,12.49.4,22.44l-.59,2.06H637.06l10.2,1.79-2.2,3.56a31.29,31.29,0,0,1-10.81,10.83A28.61,28.61,0,0,1,619.65,364.21Zm-1.84-19.95a5.77,5.77,0,0,0,.65,3.78c.52.77,1.41,1.66,3.68,1.66a6.24,6.24,0,0,0,3.52-1,11.08,11.08,0,0,0,3.26-3.9l.28-.5Zm15.09-12.91a5.2,5.2,0,0,0-.54-3.39,3.27,3.27,0,0,0-3.08-1.43,7.94,7.94,0,0,0-5.31,2.14,10.15,10.15,0,0,0-2.22,2.68Z" transform="translate(-91.94 -182.53)"/><path class="cls-2" d="M619.65,364.21c-8.94,0-14.93-3.11-17.79-9.25-2.14-4.69-2.29-10.51-.47-17.34,2.13-7.95,6-14.29,11.39-18.85a27.83,27.83,0,0,1,18.21-7c7.68,0,13.2,2.67,16.41,7.95s3.25,12.49.4,22.44l-.59,2.06H637.06l10.2,1.79-2.2,3.56a31.29,31.29,0,0,1-10.81,10.83A28.61,28.61,0,0,1,619.65,364.21Zm-1.84-19.95a5.77,5.77,0,0,0,.65,3.78c.52.77,1.41,1.66,3.68,1.66a6.24,6.24,0,0,0,3.52-1,11.08,11.08,0,0,0,3.26-3.9l.28-.5Zm15.09-12.91a5.2,5.2,0,0,0-.54-3.39,3.27,3.27,0,0,0-3.08-1.43,7.94,7.94,0,0,0-5.31,2.14,10.15,10.15,0,0,0-2.22,2.68Z" transform="translate(-91.94 -182.53)"/><path class="cls-2" d="M619.65,364.21c-8.94,0-14.93-3.11-17.79-9.25-2.14-4.69-2.29-10.51-.47-17.34,2.13-7.95,6-14.29,11.39-18.85a27.83,27.83,0,0,1,18.21-7c7.68,0,13.2,2.67,16.41,7.95s3.25,12.49.4,22.44l-.59,2.06H637.06l10.2,1.79-2.2,3.56a31.29,31.29,0,0,1-10.81,10.83A28.61,28.61,0,0,1,619.65,364.21Zm-1.84-19.95a5.77,5.77,0,0,0,.65,3.78c.52.77,1.41,1.66,3.68,1.66a6.24,6.24,0,0,0,3.52-1,11.08,11.08,0,0,0,3.26-3.9l.28-.5Zm15.09-12.91a5.2,5.2,0,0,0-.54-3.39,3.27,3.27,0,0,0-3.08-1.43,7.94,7.94,0,0,0-5.31,2.14,10.15,10.15,0,0,0-2.22,2.68Z" transform="translate(-91.94 -182.53)"/><path class="cls-2" d="M672.38,363.19c-6.85,0-11.86-1.44-15.31-4.39a15.12,15.12,0,0,1-5.26-12.24l0-2.42L666.56,342a15.77,15.77,0,0,1-4.33-2.4c-2.61-2.18-5.34-6.2-3.53-13A20.11,20.11,0,0,1,667,315.26c4.24-3,9.93-4.48,16.92-4.48s11.64,1.19,14.63,3.63,4.73,6.23,4.82,11l.05,2.42-13.54,2.39a19,19,0,0,1,7.56,4.42c2.62,2.89,3.29,6.74,2,11.47s-4.33,8.83-9.09,12.16S679.66,363.19,672.38,363.19Zm-2.55-18.28c-.1,2.18.59,2.86.82,3.08.65.63,2.08,1,4,1a11.35,11.35,0,0,0,5.89-1.27,2.44,2.44,0,0,0,1.07-1.26,11.78,11.78,0,0,0-1.67-.51c-4.31-1-7.57-1.93-10.05-2.74Zm6.06-18.79a61.77,61.77,0,0,0,8.38,2.43L686,329v-1.47c0-1.31-.47-1.71-.65-1.86s-1-.71-3.49-.71c-3.26,0-4.89.52-5.68,1Z" transform="translate(-91.94 -182.53)"/><path class="cls-2" d="M672.38,363.19c-6.85,0-11.86-1.44-15.31-4.39a15.12,15.12,0,0,1-5.26-12.24l0-2.42L666.56,342a15.77,15.77,0,0,1-4.33-2.4c-2.61-2.18-5.34-6.2-3.53-13A20.11,20.11,0,0,1,667,315.26c4.24-3,9.93-4.48,16.92-4.48s11.64,1.19,14.63,3.63,4.73,6.23,4.82,11l.05,2.42-13.54,2.39a19,19,0,0,1,7.56,4.42c2.62,2.89,3.29,6.74,2,11.47s-4.33,8.83-9.09,12.16S679.66,363.19,672.38,363.19Zm-2.55-18.28c-.1,2.18.59,2.86.82,3.08.65.63,2.08,1,4,1a11.35,11.35,0,0,0,5.89-1.27,2.44,2.44,0,0,0,1.07-1.26,11.78,11.78,0,0,0-1.67-.51c-4.31-1-7.57-1.93-10.05-2.74Zm6.06-18.79a61.77,61.77,0,0,0,8.38,2.43L686,329v-1.47c0-1.31-.47-1.71-.65-1.86s-1-.71-3.49-.71c-3.26,0-4.89.52-5.68,1Z" transform="translate(-91.94 -182.53)"/><path class="cls-2" d="M672.38,363.19c-6.85,0-11.86-1.44-15.31-4.39a15.12,15.12,0,0,1-5.26-12.24l0-2.42L666.56,342a15.77,15.77,0,0,1-4.33-2.4c-2.61-2.18-5.34-6.2-3.53-13A20.11,20.11,0,0,1,667,315.26c4.24-3,9.93-4.48,16.92-4.48s11.64,1.19,14.63,3.63,4.73,6.23,4.82,11l.05,2.42-13.54,2.39a19,19,0,0,1,7.56,4.42c2.62,2.89,3.29,6.74,2,11.47s-4.33,8.83-9.09,12.16S679.66,363.19,672.38,363.19Zm-2.55-18.28c-.1,2.18.59,2.86.82,3.08.65.63,2.08,1,4,1a11.35,11.35,0,0,0,5.89-1.27,2.44,2.44,0,0,0,1.07-1.26,11.78,11.78,0,0,0-1.67-.51c-4.31-1-7.57-1.93-10.05-2.74Zm6.06-18.79a61.77,61.77,0,0,0,8.38,2.43L686,329v-1.47c0-1.31-.47-1.71-.65-1.86s-1-.71-3.49-.71c-3.26,0-4.89.52-5.68,1Z" transform="translate(-91.94 -182.53)"/></svg>